#!OML:ASF E:/inclinewalkrobotboard/Project1/Captureday1/Session1/subject1.ASF
:FULLY-SPECIFIED
:DEGREES
51
root 0 0 0 45.00165947880412 -47.093877699279545 -18.500707578778716
lowerback -6.505213317925958 3.5988741921123353 -0.4835664117090953
upperback -13.442353583861884 4.306299389773825 -0.07414146822465373
thorax -11.034708457486829 2.1100446371968524 0.6869105184966704
lowerneck -11.43046557345113 6.750243054341582 4.430119817115311
upperneck 18.196029993198447 7.217779142405714 7.276560386687457
head 7.641607401928139 4.219802809400768 2.160169475196419
rclavicle 9.463681749339739E-16 -1.8498699328887178E-15
rhumerus 7.639375520070523 -22.50156816394977 -48.32062984500194
rradius 27.983195883053565
rwrist 21.110867327901744
rhand 0.8071596636122909 7.414786466298207
rfingers 7.125020000000029
rthumb 26.429084171235537 -19.643015201186856
lclavicle 1.4809442675963988E-15 -9.235276315787697E-16
lhumerus -10.523278917616372 3.8263542126871215 51.453618173807115
lradius 35.694902301893755
lwrist -7.711525939329743
lhand -1.7109846323467206 23.303688783570635
lfingers 7.125019999999976
lthumb 23.557891944788864 50.46544664240335
rfemur 58.98250339226535 -81.98759883295864 -56.17232290938491
rtibia 40.21407324760211
rfoot -18.430152389283393 -17.982002966704556
rtoes 21.6421807147109
lfemur -44.82839587204273 8.254655842724583 -27.13716897686352
ltibia 44.0763579426539
lfoot -22.802740308198196 14.95326329963138
ltoes 10.918957471025578
52
root 0 0 0 44.992134079451446 -47.08927971701999 -18.49794017198802
lowerback -6.500851551671145 3.5991515894134345 -0.483042918844645
upperback -13.438405665465154 4.306478629683091 -0.07480330655344058
thorax -11.032891602539518 2.1099948523635357 0.6856576963744554
lowerneck -11.43303970756399 6.749112311529549 4.429847055721172
upperneck 18.19635483610159 7.2164180402682305 7.27471159678006
head 7.642050916295203 4.219078691352584 2.159645871291878
rclavicle 9.455908129497687E-16 -1.8487678209891056E-15
rhumerus 7.640762826023455 -22.500722796585766 -48.33107651988664
rradius 27.98272462174463
rwrist 21.114030901166988
rhand 0.802155960573284 7.418045914499761
rfingers 7.125020000000029
rthumb 26.424527349659925 -19.640320913549456
lclavicle 1.483870828945172E-15 -9.231810700715875E-16
lhumerus -10.529747504948222 3.822577027677233 51.46761894815129
lradius 35.695986114612126
lwrist -7.705539411588752
lhand -1.714739294557015 23.302582203911843
lfingers 7.125019999999976
lthumb 23.55410503130608 50.46488599574731
rfemur 58.928828961647454 -81.92265187157395 -56.10826622650941
rtibia 40.21368352075789
rfoot -18.42302412830995 -17.973814559838114
rtoes 21.630500266485768
lfemur -44.80184790866745 8.244533832313369 -27.133884641844045
ltibia 44.06898512629394
lfoot -22.79007509638081 14.938868850286042
ltoes 10.904697664051684
53
root 0 0 0 44.98567480403673 -47.08398295978523 -18.495242444493528
lowerback -6.498813057244039 3.598719957793171 -0.48325805398593363
upperback -13.436686447355928 4.305850702190307 -0.07470176771758075
thorax -11.032134494747574 2.1097097290604534 0.6857245833624641
lowerneck -11.433611360624328 6.748053021815602 4.429149820602133
upperneck 18.196672811866964 7.2151289558513465 7.273849145202393
head 7.642272883416988 4.218384161883421 2.159379909489177
rclavicle 9.451259589974004E-16 -1.8484166701496445E-15
rhumerus 7.639977721818129 -22.499901650705375 -48.337883782999526
rradius 27.983479005602376
rwrist 21.113341606950648
rhand 0.7982603955333971 7.421177136897781
rfingers 7.125020000000029
rthumb 26.42060136134927 -19.637901757582004
lclavicle 1.4839436241602098E-15 -9.222584930284666E-16
lhumerus -10.535495432270984 3.8213386933247073 51.47474691226493
lradius 35.69468386313721
lwrist -7.703114028286754
lhand -1.719306268379853 23.30266615608324
lfingers 7.125019999999976
lthumb 23.549334031780482 50.46566665654592
rfemur 58.89451222624753 -81.88492602807277 -56.071067242453395
rtibia 40.21376650554751
rfoot -18.42152556724608 -17.96926844331805
rtoes 21.626554719656937
lfemur -44.78405762380106 8.238187686347567 -27.130650596726245
ltibia 44.06389874506794
lfoot -22.784588184293565 14.930216807121376
ltoes 10.897132149691512
54
root 0 0 0 44.97995289745496 -47.08399880820336 -18.493314800472678
lowerback -6.495653627168463 3.5986278560932994 -0.48354368656338426
upperback -13.435359097493212 4.3054846578749775 -0.07519848517068661
thorax -11.032380878336857 2.1095494500301273 0.6852740911000326
lowerneck -11.434491526063034 6.748437113521505 4.429257330337136
upperneck 18.19477467211949 7.215599653435062 7.273775745333399
head 7.641696371524941 4.218630014905481 2.1593943031886433
rclavicle 9.435326483752505E-16 -1.8475061025639354E-15
rhumerus 7.640972424119646 -22.4975516123745 -48.351597934349684
rradius 27.98240779454095
rwrist 21.114669119936597
rhand 0.7929422058663 7.424896136593717
rfingers 7.1250200000000286
rthumb 26.415363972239305 -19.634964068429746
lclavicle 1.4838870787913287E-15 -9.20648272892341E-16
lhumerus -10.544127558515884 3.818652341611508 51.48645043252702
lradius 35.69308917444645
lwrist -7.697971633853576
lhand -1.725659022811012 23.30272200571504
lfingers 7.125019999999976
lthumb 23.542623974423492 50.466631346182204
rfemur 58.835986947716535 -81.82083363270958 -56.008478135608954
rtibia 40.21423835376557
rfoot -18.419579649211386 -17.961708309611584
rtoes 21.62153136120958
lfemur -44.762626151153036 8.230599796682402 -27.12745514820877
ltibia 44.05825623208956
lfoot -22.776842948162333 14.919777009267396
ltoes 10.887456393824955
55
root 0 0 0 45.01060158242722 -47.10648601503097 -18.504831112454838
lowerback -6.506751667656387 3.6000336329764138 -0.4832497283862364
upperback -13.44423753699643 4.307670033135496 -0.07512962683417079
thorax -11.036012281271535 2.1106437245793606 0.6858369436310519
lowerneck -11.430591521533742 6.752952628959012 4.432015982830774
upperneck 18.19433539830118 7.220985246843382 7.277982828742406
head 7.641007566800977 4.221534564689489 2.1606256206941854
rclavicle 9.376239375912023E-16 -1.844472889906531E-15
rhumerus 7.726863365519117 -22.49569184248155 -48.35606817212229
rradius 27.96463072372053
rwrist 21.162717848178865
rhand 0.822895082113904 7.394771358975344
rfingers 7.125020000000029
rthumb 26.443560292783502 -19.660363602740613
lclavicle 1.4666822529306557E-15 -9.252100281224518E-16
lhumerus -10.512534146209886 3.8538202178882117 51.39969391034731
lradius 35.669895465695106
lwrist -7.752366112847556
lhand -1.7190585183651894 23.31242247996602
lfingers 7.125019999999976
lthumb 23.552439652454105 50.47666711017243
rfemur 59.00300527571481 -82.01102254410071 -56.195697317397816
rtibia 40.21402039606998
rfoot -18.431338590466808 -17.98483298495348
rtoes 21.645118071432098
lfemur -44.82688242252816 8.254105861667844 -27.13620589942355
ltibia 44.07581290234896
lfoot -22.804323868620507 14.952688119516875
ltoes 10.919144750366922
56
root 0 0 0 44.99970479337898 -47.09992728955024 -18.50141306037758
lowerback -6.5022077643085225 3.6001715390433175 -0.4827474120316131
upperback -13.4398869730046 4.307692860470871 -0.07567260549610699
thorax -11.033857653209886 2.1105219489887546 0.6846894973505333
lowerneck -11.43322858657128 6.751357625609873 4.4314685001468535
upperneck 18.195130095411177 7.21905909524569 7.275818808195702
head 7.641640144073344 4.220509397024948 2.1600003799926264
rclavicle 9.372848148011249E-16 -1.8436193767628303E-15
rhumerus 7.723468075292848 -22.495098918015067 -48.36508873643865
rradius 27.965163668002464
rwrist 21.163094050563092
rhand 0.8167796185304415 7.399310107001698
rfingers 7.125020000000029
rthumb 26.43795995565938 -19.656573656873356
lclavicle 1.470044729956668E-15 -9.247601064913033E-16
lhumerus -10.519865227182272 3.8490941340258567 51.41596990042911
lradius 35.67164467042227
lwrist -7.744900263908752
lhand -1.72295266458144 23.311033331331064
lfingers 7.125019999999976
lthumb 23.548422229274955 50.475806031820596
rfemur 58.94740883291708 -81.94394633911766 -56.12954306543208
rtibia 40.21363447530941
rfoot -18.42420527491571 -17.976396802246086
rtoes 21.633253491457367
lfemur -44.80043948142622 8.243972401841333 -27.13316744157548
ltibia 44.068540956053475
lfoot -22.791259568616375 14.938313104798139
ltoes 10.904688013533967
57
root 0 0 0 44.992310780097355 -47.09328932223539 -18.49827129172314
lowerback -6.500041744782799 3.599637017047166 -0.4829831336053806
upperback -13.437913357940051 4.306948007104559 -0.07548310328429286
thorax -11.032890933472984 2.1101839153766653 0.6848397954477083
lowerneck -11.43382668401768 6.749987337305318 4.430579858197623
upperneck 18.19574115596345 7.217393536809318 7.274756744425883
head 7.641977376471482 4.219613778934776 2.159670078977807
rclavicle 9.37247580995682E-16 -1.843521965837784E-15
rhumerus 7.718174558292974 -22.494550102891928 -48.37032547051769
rradius 27.966868810469443
rwrist 21.159758528351222
rhand 0.8119439880509383 7.403567839317662
rfingers 7.125020000000029
rthumb 26.43315867939137 -19.65318449742529
lclavicle 1.470634668620417E-15 -9.23756309731809E-16
lhumerus -10.526300388107762 3.846800246401903 51.42540620573648
lradius 35.671195485884965
lwrist -7.740867990541378
lhand -1.727445392698737 23.31078952528725
lfingers 7.125019999999976
lthumb 23.54362413991084 50.4762018430969
rfemur 58.91192749993323 -81.90491904681951 -56.09106527841975
rtibia 40.21371501287296
rfoot -18.42271697073876 -17.971696236804704
rtoes 21.629183884343345
lfemur -44.782967573413856 8.237704809413295 -27.13015695629822
ltibia 44.063592263765734
lfoot -22.785537295581598 14.9297907573239
ltoes 10.897075730026895
58
root 0 0 0 44.98592427399583 -47.0923966671686 -18.496031294238126
lowerback -6.496776153476151 3.5994688349268738 -0.48328931430385125
upperback -13.43642175735898 4.306492866296064 -0.07591808837352287
thorax -11.033012378409289 2.109984004870062 0.6844519239411024
lowerneck -11.434717166531405 6.750167727783039 4.43055562665141
upperneck 18.194010469915373 7.217618863292538 7.274559495402395
head 7.641465557401722 4.219728176626162 2.1596447926424984
rclavicle 9.360489219976994E-16 -1.8428463652132285E-15
rhumerus 7.715081967888423 -22.492452764808423 -48.38255935900344
rradius 27.966657740208976
rwrist 21.158682031172106
rhand 0.805805187652572 7.408284035416321
rfingers 7.125020000000029
rthumb 26.427159569092602 -19.649386681370366
lclavicle 1.4711391418923878E-15 -9.220655768473847E-16
lhumerus -10.535566367114434 3.8429936273882475 51.439477989153346
lradius 35.670541939976104
lwrist -7.734033638425963
lhand -1.7336390926467047 23.31049607863453
lfingers 7.125019999999976
lthumb 23.536965078569978 50.47674331431589
rfemur 58.852367088988714 -81.83966768957895 -56.0273329225317
rtibia 40.21418482302761
rfoot -18.4207761949621 -17.96399784587505
rtoes 21.62404778970899
lfemur -44.761864061564815 8.23020814394874 -27.12715034334602
ltibia 44.05807773889794
lfoot -22.777624401264003 14.919490094721738
ltoes 10.887396330362083
